HIERARCHY
ROOT joint_Root
{
	OFFSET 0.0 0.0 0.0
	CHANNELS 6 Xposition Yposition Zposition Zrotation Xrotation Yrotation 
	JOINT Hips
	{
		OFFSET 4.5925 91.4895 -427.239
		CHANNELS 6 Xposition Yposition Zposition Zrotation Xrotation Yrotation 
		JOINT Spine
		{
			OFFSET 15.7357 0.0 0.0
			CHANNELS 6 Xposition Yposition Zposition Zrotation Xrotation Yrotation 
			JOINT Chest
			{
				OFFSET 8.98455 -0.406207 0.0
				CHANNELS 6 Xposition Yposition Zposition Zrotation Xrotation Yrotation 
				JOINT Neck
				{
					OFFSET 16.3773 0.0 0.0
					CHANNELS 6 Xposition Yposition Zposition Zrotation Xrotation Yrotation 
					JOINT Head
					{
						OFFSET 6.45672 0.0 0.0
						CHANNELS 6 Xposition Yposition Zposition Zrotation Xrotation Yrotation 
						End Site
						{
							OFFSET 0.0 0.0 0.0
						}
					}
				}
				JOINT Shoulder_L
				{
					OFFSET 12.9942 -0.242716 4.98039
					CHANNELS 6 Xposition Yposition Zposition Zrotation Xrotation Yrotation 
					JOINT UpperArm_L
					{
						OFFSET 5.34809 0.0 0.0
						CHANNELS 6 Xposition Yposition Zposition Zrotation Xrotation Yrotation 
						JOINT LowerArm_L
						{
							OFFSET 24.3286 1.87007e-05 0.0
							CHANNELS 6 Xposition Yposition Zposition Zrotation Xrotation Yrotation 
							JOINT Hand_L
							{
								OFFSET 22.2916 0.0 0.0
								CHANNELS 6 Xposition Yposition Zposition Zrotation Xrotation Yrotation 
								End Site
								{
									OFFSET 0.0 0.0 0.0
								}
							}
						}
					}
				}
				JOINT Shoulder_R
				{
					OFFSET 12.9945 -0.242716 -4.98039
					CHANNELS 6 Xposition Yposition Zposition Zrotation Xrotation Yrotation 
					JOINT UpperArm_R
					{
						OFFSET -5.34813 0.0 0.0
						CHANNELS 6 Xposition Yposition Zposition Zrotation Xrotation Yrotation 
						JOINT LowerArm_R
						{
							OFFSET -24.3289 0.000322201 0.0
							CHANNELS 6 Xposition Yposition Zposition Zrotation Xrotation Yrotation 
							JOINT Hand_R
							{
								OFFSET -22.2915 -0.000108084 0.0
								CHANNELS 6 Xposition Yposition Zposition Zrotation Xrotation Yrotation 
								End Site
								{
									OFFSET 0.0 0.0 0.0
								}
							}
						}
					}
				}
			}
		}
		JOINT UpperLeg_L
		{
			OFFSET -2.19248 -6.46944 0.0
			CHANNELS 6 Xposition Yposition Zposition Zrotation Xrotation Yrotation 
			JOINT LowerLeg_L
			{
				OFFSET 39.0811 0.0 -1.23785e-05
				CHANNELS 6 Xposition Yposition Zposition Zrotation Xrotation Yrotation 
				JOINT Foot_L
				{
					OFFSET 40.9854 0.0 -1.26872e-05
					CHANNELS 6 Xposition Yposition Zposition Zrotation Xrotation Yrotation 
					JOINT Toes_L
					{
						OFFSET 11.7543 0.0 0.0
						CHANNELS 6 Xposition Yposition Zposition Zrotation Xrotation Yrotation 
						End Site
						{
							OFFSET 0.0 0.0 0.0
						}
					}
				}
			}
		}
		JOINT UpperLeg_R
		{
			OFFSET -2.19251 6.46944 0.0
			CHANNELS 6 Xposition Yposition Zposition Zrotation Xrotation Yrotation 
			JOINT LowerLeg_R
			{
				OFFSET -39.0811 -0.00228153 -0.0401928
				CHANNELS 6 Xposition Yposition Zposition Zrotation Xrotation Yrotation 
				JOINT Foot_R
				{
					OFFSET -40.9854 0.0 0.0
					CHANNELS 6 Xposition Yposition Zposition Zrotation Xrotation Yrotation 
					JOINT Toes_R
					{
						OFFSET -11.7543 0.0 0.0
						CHANNELS 6 Xposition Yposition Zposition Zrotation Xrotation Yrotation 
						End Site
						{
							OFFSET 0.0 0.0 0.0
						}
					}
				}
			}
		}
	}
}
MOTION
Frames:	4
Frame Time:	0.0333333
0.000000 0.000000 0.000000 0.000000 0.000000 -0.000000 -0.753894 81.008100 -3.322940 87.564100 -1.207490 9.668810 15.735700 0.000005 -0.000001 88.690900 80.451100 -87.949100 8.984550 -0.406207 -0.000000 11.330100 -0.409851 1.523660 16.377300 -0.000001 -0.000001 -5.709370 -1.982830 0.920108 6.456720 -0.000001 -0.000000 -7.291260 -1.069530 2.214470 12.994200 -0.242716 4.980390 -91.061900 4.093990 -75.445900 5.348090 -0.000007 -0.000001 -72.311000 21.553300 -14.892800 24.328600 0.000019 0.000005 6.027460 13.663700 -24.083700 22.291600 -0.000001 0.000005 7.395790 5.415830 -3.461730 12.994500 -0.242716 -4.980390 88.728200 9.010160 -81.931000 -5.348130 -0.000001 -0.000004 -66.975200 28.152400 -14.939200 -24.328900 0.000322 -0.000009 -2.450590 -6.227540 -21.520400 -22.291500 -0.000108 -0.000004 13.239400 5.551200 -8.625320 -2.192480 -6.469440 -0.000000 -173.074000 -10.077900 -21.428000 39.081100 -0.000007 -0.000012 -0.544187 0.236500 66.511800 40.985400 -0.000006 -0.000013 1.561540 4.788230 -85.355200 11.754300 -0.000000 0.000003 -0.000683 -0.005160 -16.763700 -2.192510 6.469440 -0.000001 178.655000 14.017600 159.879000 -39.081100 -0.002282 -0.040193 -0.022343 0.011715 65.330300 -40.985400 0.000008 0.000006 5.786210 2.925060 -85.767300 -11.754300 -0.000006 -0.000006 -0.656263 -0.813340 -16.061600
0.000000 0.000000 0.000000 0.000000 0.000000 -0.000000 -0.770089 83.358900 -2.497670 87.836500 -0.020996 9.408240 15.735700 0.000005 -0.000001 87.075700 81.451800 -86.510300 8.984550 -0.406207 -0.000000 9.313440 -0.859719 1.200020 16.377300 -0.000001 -0.000001 -3.924840 -2.178630 0.893006 6.456720 -0.000001 -0.000000 -5.231850 -1.200670 2.335700 12.994200 -0.242716 4.980390 -90.876200 3.154480 -74.464100 5.348090 -0.000007 -0.000001 -67.467300 12.204100 -17.958500 24.328600 0.000019 0.000005 7.225870 16.688000 -23.822000 22.291600 -0.000001 0.000005 6.803080 5.413750 -3.409900 12.994500 -0.242716 -4.980390 88.709900 7.659540 -80.406900 -5.348130 -0.000001 -0.000004 -61.955400 20.189100 -16.928900 -24.328900 0.000322 -0.000009 -1.365070 -4.730250 -16.077900 -22.291500 -0.000108 -0.000004 7.400970 5.508120 -6.864260 -2.192480 -6.469440 -0.000000 -173.438000 -9.695330 -17.933100 39.081100 -0.000007 -0.000012 -0.462929 0.268072 59.926800 40.985400 -0.000006 -0.000013 1.642870 5.530860 -82.640200 11.754300 -0.000000 0.000003 -0.000653 -0.004972 -16.757200 -2.192510 6.469440 -0.000001 178.340000 14.471100 163.660000 -39.081100 -0.002282 -0.040193 0.095135 -0.055687 58.793700 -40.985400 0.000008 0.000006 5.881080 2.514220 -83.282500 -11.754300 -0.000006 -0.000006 -0.523883 -0.643972 -16.179000
0.000000 0.000000 0.000000 0.000000 0.000000 -0.000000 -0.744912 86.532400 -1.777080 88.355400 0.895375 8.425110 15.735700 0.000005 -0.000001 84.941200 82.819300 -84.705000 8.984550 -0.406207 -0.000000 6.543360 -1.265010 0.544117 16.377300 -0.000001 -0.000001 -1.334720 -2.520990 0.951777 6.456720 -0.000001 -0.000000 -3.286520 -1.468380 2.507350 12.994200 -0.242716 4.980390 -90.367300 1.217260 -73.193900 5.348090 -0.000007 -0.000001 -61.158700 0.083700 -23.742000 24.328600 0.000019 0.000005 5.933210 15.231500 -21.582600 22.291600 -0.000001 0.000005 9.233410 5.378140 -2.238300 12.994500 -0.242716 -4.980390 88.940400 5.329890 -78.734500 -5.348130 -0.000001 -0.000004 -56.428800 6.478150 -20.517100 -24.328900 0.000322 -0.000009 -0.905455 -4.448310 -11.515900 -22.291500 -0.000108 -0.000004 8.992980 5.465960 -5.239940 -2.192480 -6.469440 -0.000000 -174.042000 -10.330100 -13.409900 39.081100 -0.000007 -0.000012 -0.327923 0.276980 49.814700 40.985400 -0.000006 -0.000013 1.777350 6.960040 -78.098100 11.754300 -0.000000 0.000003 -0.000440 -0.003579 -16.709100 -2.192510 6.469440 -0.000001 177.850000 14.966300 168.097000 -39.081100 -0.002282 -0.040193 0.068517 -0.056661 49.036700 -40.985400 0.000008 0.000006 5.378420 2.897590 -78.511800 -11.754300 -0.000006 -0.000006 -0.427795 -0.524444 -16.675000
0.000000 0.000000 0.000000 0.000000 0.000000 -0.000000 -0.616152 89.424400 -1.063860 88.913400 1.560730 7.465580 15.735700 0.000005 -0.000001 82.396700 84.139900 -82.473700 8.984550 -0.406207 -0.000000 3.851240 -1.545960 -0.101951 16.377300 -0.000001 -0.000001 1.559820 -2.659110 1.022020 6.456720 -0.000001 -0.000000 -1.576540 -1.685990 2.715790 12.994200 -0.242716 4.980390 -89.730000 -0.841528 -72.216300 5.348090 -0.000007 -0.000001 -58.282800 -17.528600 -32.137800 24.328600 0.000019 0.000005 5.576780 14.630200 -21.137000 22.291600 -0.000001 0.000005 9.407820 5.331910 -0.842390 12.994500 -0.242716 -4.980390 89.265100 3.207570 -77.081300 -5.348130 -0.000001 -0.000004 -49.584800 -9.419790 -26.498400 -24.328900 0.000322 -0.000009 -1.172150 -6.605610 -10.075100 -22.291500 -0.000108 -0.000004 10.179400 5.419700 -3.592150 -2.192480 -6.469440 -0.000000 -174.532000 -12.104500 -8.147450 39.081100 -0.000007 -0.000012 -0.166398 0.209491 38.460400 40.985400 -0.000006 -0.000013 1.940750 9.294050 -72.971700 11.754300 -0.000000 0.000003 -0.000199 -0.001841 -16.647000 -2.192510 6.469440 -0.000001 176.897000 16.845600 172.991000 -39.081100 -0.002282 -0.040193 0.042098 -0.048833 38.480100 -40.985400 0.000008 0.000006 5.130260 4.941640 -72.968400 -11.754300 -0.000006 -0.000006 -0.376814 -0.466965 -17.536400
